<svg width="16" height="16" viewBox="0 0 16 16" fill="none" xmlns="http://www.w3.org/2000/svg">
<path d="M9.4576 12.7788C9.4576 13.1553 9.30801 13.5165 9.04174 13.7828C8.77546 14.049 8.41432 14.1986 8.03775 14.1986C7.66118 14.1986 7.30003 14.049 7.03376 13.7828C6.76748 13.5165 6.61789 13.1553 6.61789 12.7788C6.61789 12.4022 6.76748 12.041 7.03376 11.7748C7.30003 11.5085 7.66118 11.3589 8.03775 11.3589C8.41432 11.3589 8.77546 11.5085 9.04174 11.7748C9.30801 12.041 9.4576 12.4022 9.4576 12.7788ZM9.4576 8.0459C9.4576 8.42247 9.30801 8.78362 9.04174 9.0499C8.77546 9.31617 8.41432 9.46576 8.03775 9.46576C7.66118 9.46576 7.30003 9.31617 7.03376 9.0499C6.76748 8.78362 6.61789 8.42247 6.61789 8.0459C6.61789 7.66933 6.76748 7.30819 7.03376 7.04191C7.30003 6.77564 7.66118 6.62605 8.03775 6.62605C8.41432 6.62605 8.77546 6.77564 9.04174 7.04191C9.30801 7.30819 9.4576 7.66933 9.4576 8.0459ZM9.4576 3.31305C9.4576 3.68962 9.30801 4.05076 9.04174 4.31704C8.77546 4.58331 8.41432 4.7329 8.03775 4.7329C7.66118 4.7329 7.30003 4.58331 7.03376 4.31704C6.76748 4.05076 6.61789 3.68962 6.61789 3.31305C6.61789 2.93648 6.76748 2.57533 7.03376 2.30906C7.30003 2.04278 7.66118 1.89319 8.03775 1.89319C8.41432 1.89319 8.77546 2.04278 9.04174 2.30906C9.30801 2.57533 9.4576 2.93648 9.4576 3.31305Z" fill="black"/>
</svg>
