<svg width="17" height="16" viewBox="0 0 17 16" fill="none" xmlns="http://www.w3.org/2000/svg">
<path d="M4.90854 10.0783L5.39774 9.70593C6.88727 8.57211 8.66475 7.87844 10.5285 7.70361L11.4167 7.6203M11.4167 7.6203L11.4889 7.19221C11.5483 6.83966 11.8307 6.5671 12.1852 6.52027L12.5589 6.47089C12.9162 6.42368 13.2173 6.73568 13.1574 7.09111V7.09111C13.1286 7.26201 13.0189 7.40843 12.863 7.4841L12.5994 7.61201C12.3929 7.71224 12.1603 7.7456 11.9339 7.70745L11.4167 7.6203Z" stroke="#FAB12D" stroke-width="1.00154"/>
<path d="M4.93123 13.0722L5.53197 12.9414C7.36112 12.5433 9.26522 12.6659 11.0283 13.2951L11.8684 13.5949M11.8684 13.5949L12.1147 13.2374C12.3176 12.943 12.6887 12.8154 13.0298 12.9227L13.3894 13.0359C13.7332 13.1442 13.8742 13.5542 13.6697 13.851V13.851C13.5714 13.9937 13.4101 14.08 13.2368 14.0827L12.9438 14.0873C12.7143 14.0908 12.4894 14.0227 12.3003 13.8925L11.8684 13.5949Z" stroke="#F2443F" stroke-width="1.00153"/>
<path d="M1.81235 9.03869L1.94774 8.43897C2.35998 6.61296 3.27573 4.93904 4.59109 3.60709L5.21792 2.97236M5.21792 2.97236L4.99802 2.59806C4.81692 2.2898 4.85808 1.89946 5.0995 1.63575L5.35405 1.35769C5.59744 1.09183 6.02863 1.1373 6.21122 1.44808V1.44808C6.29901 1.59752 6.3091 1.78019 6.23829 1.93838L6.1186 2.20579C6.02482 2.41532 5.86806 2.5904 5.67013 2.70669L5.21792 2.97236Z" stroke="#2699E3" stroke-width="1.00154"/>
</svg>
