<svg width="13" height="13" viewBox="0 0 13 13" fill="none" xmlns="http://www.w3.org/2000/svg">
<path fill-rule="evenodd" clip-rule="evenodd" d="M2.05265 0C1.50826 0 0.986156 0.205446 0.601209 0.571142C0.216261 0.936838 0 1.43283 0 1.95V11.05C0 11.5672 0.216261 12.0632 0.601209 12.4289C0.986156 12.7946 1.50826 13 2.05265 13H6.15796C6.70236 13 7.22446 12.7946 7.60941 12.4289C7.99436 12.0632 8.21062 11.5672 8.21062 11.05V1.95C8.21062 1.43283 7.99436 0.936838 7.60941 0.571142C7.22446 0.205446 6.70236 0 6.15796 0H2.05265ZM9.09531 3.44045C9.22362 3.31859 9.39762 3.25014 9.57905 3.25014C9.76049 3.25014 9.93449 3.31859 10.0628 3.44045L12.7997 6.04045C12.9279 6.16234 13 6.32764 13 6.5C13 6.67236 12.9279 6.83766 12.7997 6.95955L10.0628 9.55955C9.93375 9.67795 9.76092 9.74347 9.58152 9.74199C9.40212 9.74051 9.23051 9.67215 9.10365 9.55163C8.97679 9.43112 8.90483 9.26809 8.90327 9.09766C8.90171 8.92723 8.97068 8.76304 9.09531 8.64045L10.6642 7.15H4.78953C4.60806 7.15 4.43403 7.08152 4.30571 6.95962C4.1774 6.83772 4.10531 6.67239 4.10531 6.5C4.10531 6.32761 4.1774 6.16228 4.30571 6.04038C4.43403 5.91848 4.60806 5.85 4.78953 5.85H10.6642L9.09531 4.35955C8.96704 4.23766 8.89498 4.07236 8.89498 3.9C8.89498 3.72764 8.96704 3.56234 9.09531 3.44045Z" fill="white"/>
</svg>
