<svg width="16" height="17" viewBox="0 0 16 17" fill="none" xmlns="http://www.w3.org/2000/svg">
<g clip-path="url(#clip0_241_645)">
<path d="M13.3332 9.56667V8.5C13.3332 8.2171 13.2208 7.94579 13.0208 7.74575C12.8207 7.54571 12.5494 7.43333 12.2665 7.43333H1.59987C1.31697 7.43333 1.04566 7.54571 0.845623 7.74575C0.645584 7.94579 0.533203 8.2171 0.533203 8.5V14.9C0.533203 15.1829 0.645584 15.4542 0.845623 15.6542C1.04566 15.8543 1.31697 15.9667 1.59987 15.9667H12.2665C12.5494 15.9667 12.8207 15.8543 13.0208 15.6542C13.2208 15.4542 13.3332 15.1829 13.3332 14.9V13.8333M13.3332 9.56667H9.06654C8.50074 9.56667 7.95812 9.79143 7.55804 10.1915C7.15796 10.5916 6.9332 11.1342 6.9332 11.7C6.9332 12.2658 7.15796 12.8084 7.55804 13.2085C7.95812 13.6086 8.50074 13.8333 9.06654 13.8333H13.3332M13.3332 9.56667C13.899 9.56667 14.4416 9.79143 14.8417 10.1915C15.2418 10.5916 15.4665 11.1342 15.4665 11.7C15.4665 12.2658 15.2418 12.8084 14.8417 13.2085C14.4416 13.6086 13.899 13.8333 13.3332 13.8333M3.7332 7.43333V4.23333C3.7332 3.38464 4.07035 2.57071 4.67046 1.97059C5.27058 1.37047 6.08451 1.03333 6.9332 1.03333C7.7819 1.03333 8.59583 1.37047 9.19595 1.97059C9.79606 2.57071 10.1332 3.38464 10.1332 4.23333V7.43333M12.7999 11.7H13.8665M10.6665 11.7H11.7332M8.5332 11.7H9.59987" stroke="black" stroke-width="1.06667"/>
</g>
<defs>
<clipPath id="clip0_241_645">
<rect width="16" height="16" fill="white" transform="translate(0 0.5)"/>
</clipPath>
</defs>
</svg>
