<svg width="16" height="17" viewBox="0 0 16 17" fill="none" xmlns="http://www.w3.org/2000/svg">
<path d="M2.6665 12.5C2.6665 11.7928 2.94746 11.1145 3.44755 10.6144C3.94765 10.1143 4.62593 9.83333 5.33317 9.83333H10.6665C11.3737 9.83333 12.052 10.1143 12.5521 10.6144C13.0522 11.1145 13.3332 11.7928 13.3332 12.5C13.3332 12.8536 13.1927 13.1928 12.9426 13.4428C12.6926 13.6929 12.3535 13.8333 11.9998 13.8333H3.99984C3.64622 13.8333 3.30708 13.6929 3.05703 13.4428C2.80698 13.1928 2.6665 12.8536 2.6665 12.5Z" stroke="black" stroke-width="1.33333" stroke-linejoin="round"/>
<path d="M8 7.16666C9.10457 7.16666 10 6.27123 10 5.16666C10 4.06209 9.10457 3.16666 8 3.16666C6.89543 3.16666 6 4.06209 6 5.16666C6 6.27123 6.89543 7.16666 8 7.16666Z" stroke="black" stroke-width="1.33333"/>
</svg>
