<svg width="56" height="56" viewBox="0 0 56 56" fill="none" xmlns="http://www.w3.org/2000/svg">
<rect width="56" height="56" rx="28" fill="white"/>
<path d="M38.5 39.8125V37.1875C38.5 35.7951 37.9469 34.4598 36.9623 33.4752C35.9777 32.4906 34.6424 31.9375 33.25 31.9375H22.75C21.3576 31.9375 20.0223 32.4906 19.0377 33.4752C18.0531 34.4598 17.5 35.7951 17.5 37.1875V39.8125" stroke="black" stroke-width="2.625" stroke-linecap="round" stroke-linejoin="round"/>
<path d="M28 26.6875C30.8995 26.6875 33.25 24.337 33.25 21.4375C33.25 18.538 30.8995 16.1875 28 16.1875C25.1005 16.1875 22.75 18.538 22.75 21.4375C22.75 24.337 25.1005 26.6875 28 26.6875Z" stroke="black" stroke-width="2.625" stroke-linecap="round" stroke-linejoin="round"/>
</svg>
