<svg width="226" height="218" viewBox="0 0 226 218" fill="none" xmlns="http://www.w3.org/2000/svg">
<path fill-rule="evenodd" clip-rule="evenodd" d="M114.054 3.5524C138.968 2.89272 165.621 -4.36765 186.807 8.7588C208.518 22.2101 224.788 47.1285 225.588 72.6559C226.341 96.6965 201.746 112.429 190.724 133.807C182.171 150.398 182.823 171.843 168.365 183.649C153.599 195.707 132.661 192.271 114.054 196.417C88.3758 202.137 59.4508 228.775 38.7659 212.52C17.7826 196.031 42.2427 160.254 35.2586 134.498C28.8759 110.959 -1.07443 96.3834 0.678387 72.0576C2.48687 46.9592 22.5093 25.5522 44.0464 12.5388C64.6883 0.0662544 89.9447 4.19074 114.054 3.5524Z" fill="#2699E3" fill-opacity="0.2"/>
</svg>
