<svg width="70" height="25" viewBox="0 0 70 25" fill="none" xmlns="http://www.w3.org/2000/svg">
<path fill-rule="evenodd" clip-rule="evenodd" d="M33.1629 2.50022C34.4958 2.49863 35.8147 2.77882 37.0376 3.32331C38.2604 3.86782 39.3611 4.66498 40.2709 5.66517L42 3.89211C40.5358 2.30903 38.6935 1.14733 36.6563 0.522632C34.6191 -0.102062 32.458 -0.16796 30.3882 0.3315C28.3185 0.830956 26.4123 1.87835 24.8592 3.36943C23.3062 4.86051 22.1606 6.74326 21.5364 8.83028C20.9122 10.9173 20.8313 13.1358 21.3016 15.2649C21.7718 17.394 22.7769 19.3596 24.2169 20.9659C25.6569 22.5721 27.4815 23.7632 29.5089 24.4203C31.5365 25.0774 33.6962 25.1779 35.7733 24.7115V24.6845H35.8907C38.1035 24.1611 40.1294 23.0118 41.739 21.367L40.0099 19.594C38.8742 20.7507 37.4784 21.6024 35.9459 22.0734C34.4134 22.5445 32.7915 22.6205 31.2236 22.2949C29.6557 21.9691 28.1901 21.2516 26.9565 20.2059C25.7228 19.1603 24.7591 17.8185 24.1507 16.2994C23.5422 14.7802 23.3077 13.1305 23.4677 11.4962C23.6278 9.86174 24.1777 8.29309 25.0687 6.92885C25.9597 5.56462 27.1643 4.44686 28.5761 3.67443C29.9878 2.902 31.5633 2.4987 33.1629 2.50022ZM33.1629 18.7825C34.7768 18.7879 36.327 18.1361 37.4737 16.97L39.1165 18.6546C37.9231 19.8711 36.403 20.6939 34.751 21.0175C33.0992 21.3411 31.3908 21.1507 29.845 20.4707C28.2991 19.7907 26.9864 18.6521 26.0748 17.2009C25.1634 15.7497 24.6948 14.052 24.7291 12.3256C24.7634 10.5991 25.2991 8.92246 26.2674 7.51066C27.2358 6.09888 28.5928 5.01624 30.1643 4.40157C31.7359 3.78691 33.4504 3.66822 35.0881 4.06072C36.7257 4.45322 38.2119 5.33903 39.3561 6.60459C38.7957 7.18003 38.248 7.74236 37.7132 8.29158C37.0306 7.51294 36.1694 6.92182 35.2077 6.57196C34.2461 6.22211 33.2145 6.12462 32.2068 6.28836C31.1992 6.45209 30.2473 6.87186 29.4378 7.50951C28.6283 8.14715 27.9868 8.98243 27.5718 9.93947C27.1567 10.8964 26.9811 11.9448 27.061 12.9892C27.141 14.0335 27.4739 15.0409 28.0294 15.9196C28.585 16.7982 29.3456 17.5205 30.2422 18.0204C31.1387 18.5203 32.1427 18.7824 33.1629 18.7825Z" fill="#FAB12D"/>
<path fill-rule="evenodd" clip-rule="evenodd" d="M66.5884 1L58.6717 10.8517L58.0736 10.0903L58.5382 9.51496L58.5668 9.47823L58.6287 9.39989L58.6669 9.35582L58.7216 9.28483L58.767 9.23096L58.8169 9.16975L58.867 9.10365L58.9099 9.05224L58.9694 8.97879L59.0028 8.93472L59.0718 8.85148L59.0981 8.81721L59.1743 8.72417L59.1934 8.6997L59.2768 8.59687L59.2887 8.57972L59.3792 8.46711L59.4769 8.34715L59.5698 8.22963L59.6556 8.12191L59.6747 8.09987L59.7533 7.99949L59.7795 7.96767L59.851 7.87709L59.8866 7.83547L59.951 7.75467L59.9915 7.70326L60.0487 7.63226L60.0987 7.56861L60.1487 7.5074L60.2083 7.43641L60.2488 7.38254L60.3155 7.30175L60.3488 7.25768L60.425 7.16465L60.4513 7.13282L60.5347 7.02999L60.5514 7.00796L60.6443 6.8929V6.88066L60.7443 6.7558L60.8468 6.62849L60.9421 6.50852L60.9564 6.49139L61.0469 6.37877L61.0683 6.35184L61.1517 6.25146L61.1827 6.21229L61.2565 6.11925L61.2947 6.0703L61.3614 5.9895L61.4091 5.92829L61.4662 5.8573L61.5233 5.7863L61.5711 5.72508L61.6377 5.64429L61.6783 5.59289L61.7521 5.49985L61.7855 5.46068L61.8689 5.35785L61.8926 5.32603L61.9855 5.21096L61.9999 5.19138L62.1023 5.06652L62.2119 4.93186L62.3215 4.79721V4.78496L62.4216 4.66256L62.4406 4.63807L62.5311 4.52546L62.5597 4.48873L62.6407 4.38591L62.6789 4.33939L62.7527 4.2488L62.7979 4.19004L62.8647 4.10925L62.9195 4.04071L62.9767 3.9697L63.041 3.88891L63.091 3.82771L63.1625 3.73713L63.203 3.68816L63.2864 3.58533L63.3174 3.54617L63.4103 3.4311L63.4318 3.40416L63.5317 3.27686L63.546 3.26217L63.658 3.12262L63.7748 2.97817L63.8867 2.83862L63.901 2.82149L64.0011 2.69418L64.0273 2.6648L64.1202 2.54973L64.1536 2.50811L64.237 2.40284L64.2798 2.34898L64.3561 2.25595L64.4085 2.18984L64.4728 2.1066L64.5371 2.0307L64.592 1.9597L64.6658 1.86912L64.7134 1.81036L64.7945 1.70754L64.8326 1.66103L64.9255 1.54596L64.9541 1.51168L65.0542 1.38437L65.0756 1.35989L65.1875 1.22034V1.2081L65.3091 1.05631H62.2119L62.1214 1.16893L62.0404 1.2693L62.0237 1.29134L61.9499 1.38193L61.9236 1.41375L61.8617 1.4921L61.826 1.53617L61.7712 1.60471L61.7283 1.65857L61.683 1.71488L61.6306 1.78099L61.5925 1.82505L61.5329 1.90095L61.5044 1.93767L61.4352 2.02336L61.4162 2.04784L61.3375 2.14332L61.2518 2.25105L61.1636 2.36122L61.085 2.4616L61.0683 2.48119L60.9969 2.56932L60.973 2.5987L60.9111 2.67704L60.8778 2.71866L60.823 2.78476L60.7825 2.83618L60.7372 2.89249L60.6872 2.95369L60.6514 3.0002L60.5943 3.07121L60.5657 3.10793L60.499 3.18872L60.4799 3.2132L60.4061 3.30624L60.3251 3.40906L60.2393 3.51433L60.1582 3.61471L60.1464 3.6294L60.0748 3.71754L60.0535 3.74447L59.9915 3.82281L59.9606 3.85953L59.9081 3.92809L59.87 3.9746L59.8247 4.03092L59.7771 4.08722L59.7413 4.13374L59.6866 4.20229L59.658 4.23901L59.5961 4.3149L59.5746 4.34184L59.5055 4.42753L59.4936 4.44466L59.415 4.54014L59.3339 4.64297L59.2553 4.7409V4.75314L59.1838 4.84128L59.1648 4.86576L59.1029 4.94166L59.0766 4.97593L59.0219 5.04203L58.9861 5.0861L58.9409 5.14241L58.8979 5.19627L58.8599 5.24279L58.8098 5.30644L58.7812 5.34316L58.7216 5.41662L58.7002 5.44354L58.6359 5.52433L58.6216 5.54147L58.5477 5.6345L58.4691 5.73243L58.3929 5.82791V5.84015L58.3237 5.92585L58.3072 5.94788L58.2451 6.02377L58.2214 6.05315L58.1665 6.12171L58.1356 6.16088L58.0879 6.21719L58.0498 6.2686L58.0117 6.31511L57.964 6.37387L57.9331 6.4106L57.8782 6.47914L57.8569 6.50608L57.7949 6.58442L57.7806 6.60156L57.7091 6.68969L57.6329 6.78517L57.5567 6.88066L57.4876 6.96635L57.4733 6.98348L57.3374 7.15485L57.3065 7.19158L57.2612 7.24789L57.2254 7.2944L57.1874 7.34093L57.1421 7.39723L57.1112 7.43395L57.0611 7.49761L57.0373 7.52699L56.5417 8.13904L50.9454 1H47.5576L54.8288 10.2739L56.3607 12.2325L56.9562 12.9915L58.643 15.1435L66.374 25H69.7618L60.3536 13.0037L70 1.00734L66.5884 1ZM44.8679 1H46.3664L54.2284 11.0231L55.7603 12.9817L56.3559 13.743L58.0427 15.895L65.1899 25H61.9642L56.4131 17.9148L50.7239 24.9927H47.3051L54.724 15.7629L54.1283 15.0014L46.0971 24.9927H43L43.7386 24.0746C45.2658 22.1772 47.934 18.855 52.5988 13.0576L43.9149 1.97929L43.1478 1H44.8679ZM56.4107 17.9148L55.9509 17.3248L56.4131 17.9148H56.4107Z" fill="#F2443F"/>
<path d="M19 1H0V4H19V1Z" fill="#2699E3"/>
<path d="M19 22H0V25H19V22Z" fill="#2699E3"/>
<path fill-rule="evenodd" clip-rule="evenodd" d="M0 5H19V7.44815H5.9591V10.4308H19V13H0V5ZM3.97706 7.83267H2.98279V10.9539H3.97706V7.83267Z" fill="#2699E3"/>
<path fill-rule="evenodd" clip-rule="evenodd" d="M0 13H19V15.4481H5.9591V18.4308H19V21H0V13ZM3.97706 15.1402H2.98279V18.2615H3.97706V15.1402Z" fill="#2699E3"/>
</svg>
