<svg width="175" height="34" viewBox="0 0 175 34" fill="none" xmlns="http://www.w3.org/2000/svg">
<mask id="mask0_213_448" style="mask-type:luminance" maskUnits="userSpaceOnUse" x="0" y="0" width="92" height="32">
<path d="M92 0H0V32H92V0Z" fill="white"/>
</mask>
<g mask="url(#mask0_213_448)">
<path fill-rule="evenodd" clip-rule="evenodd" d="M42.638 3.20028C44.3517 3.19825 46.0475 3.55688 47.6198 4.25384C49.192 4.95081 50.6071 5.97117 51.7769 7.25142L54 4.9819C52.1175 2.95556 49.7488 1.46858 47.1296 0.668969C44.5102 -0.13064 41.7318 -0.214988 39.0706 0.42432C36.4095 1.06362 33.9587 2.40429 31.9619 4.31288C29.9651 6.22145 28.4922 8.63137 27.6897 11.3028C26.8871 13.9742 26.7831 16.8138 27.3877 19.5391C27.9923 22.2644 29.2846 24.7803 31.136 26.8363C32.9874 28.8923 35.3333 30.4168 37.9401 31.258C40.5469 32.0991 43.3237 32.2277 45.9943 31.6307V31.5961H46.1452C48.9902 30.9262 51.5949 29.4551 53.6644 27.3498L51.4413 25.0803C49.9811 26.561 48.1865 27.651 46.2161 28.254C44.2458 28.857 42.1605 28.9542 40.1447 28.5374C38.1287 28.1205 36.2444 27.2021 34.6584 25.8636C33.0722 24.5251 31.8332 22.8077 31.0509 20.8632C30.2686 18.9187 29.967 16.807 30.1727 14.7151C30.3786 12.623 31.0857 10.6152 32.2312 8.86893C33.3767 7.12271 34.9255 5.69198 36.7407 4.70327C38.5558 3.71456 40.5814 3.19834 42.638 3.20028ZM42.638 24.0416C44.713 24.0486 46.7061 23.2143 48.1804 21.7217L50.2927 23.8779C48.7583 25.435 46.8038 26.4882 44.6799 26.9024C42.5561 27.3165 40.3595 27.0729 38.3721 26.2025C36.3846 25.332 34.6968 23.8746 33.5248 22.0172C32.353 20.1596 31.7505 17.9866 31.7945 15.7767C31.8387 13.5668 32.5274 11.4207 33.7724 9.61365C35.0175 7.80656 36.7622 6.42078 38.7827 5.63401C40.8033 4.84724 43.0076 4.69532 45.1132 5.19772C47.2188 5.70012 49.1296 6.83396 50.6007 8.45387C49.8801 9.19044 49.1761 9.91022 48.4884 10.6132C47.6108 9.61656 46.5036 8.85993 45.2671 8.41211C44.0306 7.9643 42.7044 7.83952 41.4087 8.0491C40.1132 8.25868 38.8893 8.79598 37.8486 9.61217C36.8078 10.4284 35.9831 11.4975 35.4494 12.7225C34.9158 13.9474 34.69 15.2893 34.7927 16.6262C34.8956 17.9629 35.3236 19.2524 36.0378 20.3771C36.7522 21.5017 37.7301 22.4262 38.8828 23.0661C40.0355 23.706 41.3263 24.0414 42.638 24.0416Z" fill="#FAB12D"/>
<path fill-rule="evenodd" clip-rule="evenodd" d="M87.5776 1L77.3151 13.7251L76.5399 12.7416L77.1421 11.9985L77.1792 11.951L77.2595 11.8499L77.3089 11.7929L77.3799 11.7012L77.4387 11.6317L77.5035 11.5526L77.5684 11.4672L77.6239 11.4008L77.7011 11.3059L77.7443 11.249L77.8339 11.1415L77.8679 11.0972L77.9667 10.9771L77.9914 10.9454L78.0995 10.8126L78.115 10.7905L78.2323 10.645L78.3589 10.4901L78.4794 10.3383L78.5906 10.1991L78.6153 10.1707L78.7172 10.041L78.7512 9.99991L78.8438 9.88291L78.8901 9.82914L78.9736 9.72479L79.026 9.65838L79.1002 9.56667L79.165 9.48446L79.2298 9.40539L79.3071 9.31369L79.3595 9.24411L79.4461 9.13976L79.4892 9.08284L79.588 8.96268L79.622 8.92156L79.7301 8.78874L79.7518 8.76028L79.8722 8.61166V8.59585L80.0019 8.43457L80.1347 8.27013L80.2583 8.11517L80.2768 8.09304L80.3942 7.94758L80.4219 7.91279L80.53 7.78313L80.5702 7.73254L80.6659 7.61237L80.7153 7.54913L80.8018 7.44477L80.8636 7.36571L80.9377 7.27401L81.0117 7.1823L81.0736 7.10323L81.16 6.99888L81.2126 6.93248L81.3083 6.81231L81.3516 6.76171L81.4597 6.62889L81.4904 6.58778L81.6109 6.43915L81.6294 6.41386L81.7623 6.25258L81.9043 6.07865L82.0464 5.90473V5.88891L82.1762 5.73081L82.2008 5.69917L82.3181 5.55371L82.3552 5.50628L82.4602 5.37346L82.5097 5.31338L82.6054 5.19637L82.664 5.12047L82.7506 5.01612L82.8215 4.92758L82.8957 4.83587L82.9791 4.73151L83.0439 4.65246L83.1365 4.53546L83.1891 4.47221L83.2972 4.33939L83.3373 4.2888L83.4578 4.14017L83.4856 4.10538L83.6152 3.94094L83.6338 3.92197L83.7789 3.74172L83.9303 3.55514L84.0754 3.37489L84.0939 3.35275L84.2236 3.18832L84.2576 3.15037L84.3781 3.00174L84.4214 2.94797L84.5295 2.812L84.585 2.74243L84.6838 2.62226L84.7518 2.53688L84.8351 2.42935L84.9185 2.33133L84.9896 2.23962L85.0853 2.12262L85.147 2.04672L85.2521 1.9139L85.3015 1.85382L85.4219 1.70519L85.459 1.66092L85.5887 1.49648L85.6166 1.46486L85.7616 1.28461V1.26879L85.9192 1.07273H81.9043L81.787 1.2182L81.682 1.34785L81.6604 1.37631L81.5646 1.49332L81.5306 1.53443L81.4504 1.63563L81.404 1.69255L81.333 1.78109L81.2774 1.85065L81.2188 1.92339L81.1507 2.00877L81.1014 2.06569L81.0241 2.16372L80.9871 2.21116L80.8975 2.32184L80.8729 2.35346L80.7709 2.47679L80.6597 2.61593L80.5454 2.75824L80.4435 2.8879L80.4219 2.9132L80.3293 3.02704L80.2983 3.06499L80.2181 3.16617L80.1749 3.21994L80.1038 3.30532L80.0514 3.37173L79.9927 3.44446L79.9279 3.52352L79.8815 3.5836L79.8074 3.67531L79.7703 3.72274L79.6839 3.8271L79.6591 3.85872L79.5634 3.97889L79.4584 4.1117L79.3473 4.24768L79.2421 4.37734L79.2268 4.39631L79.1341 4.51015L79.1064 4.54494L79.026 4.64613L78.9859 4.69356L78.9179 4.78212L78.8686 4.8422L78.8098 4.91493L78.7481 4.98766L78.7017 5.04775L78.6308 5.13629L78.5937 5.18372L78.5134 5.28175L78.4856 5.31654L78.396 5.42723L78.3806 5.44936L78.2787 5.57269L78.1736 5.7055L78.0717 5.83199V5.84781L77.9791 5.96165L77.9543 5.99327L77.8741 6.09131L77.8401 6.13557L77.7691 6.22095L77.7227 6.27787L77.6641 6.35061L77.6084 6.42018L77.5591 6.48027L77.4942 6.56248L77.4571 6.60992L77.3799 6.7048L77.3521 6.73957L77.2687 6.84393L77.2502 6.86606L77.1545 6.98623L77.0526 7.11272L76.9538 7.23605V7.25187L76.8641 7.36255L76.8426 7.39101L76.7622 7.48904L76.7314 7.52699L76.6603 7.61554L76.6203 7.66613L76.5584 7.73887L76.509 7.80528L76.4596 7.86536L76.3978 7.94125L76.3577 7.98869L76.2866 8.07723L76.2589 8.11202L76.1785 8.21321L76.16 8.23534L76.0674 8.34919L75.9686 8.47252L75.8698 8.59585L75.7802 8.70653L75.7617 8.72866L75.5856 8.95002L75.5455 8.99745L75.4868 9.07019L75.4404 9.13027L75.3911 9.19036L75.3323 9.26309L75.2922 9.31052L75.2273 9.39275L75.1965 9.43069L74.5541 10.2213L67.2996 1H62.908L72.3336 12.9788L74.3194 15.5086L75.0914 16.489L77.278 19.2686L87.2996 32H91.6912L79.4954 16.5048L92 1.00949L87.5776 1ZM59.4213 1H61.3638L71.5553 13.9465L73.5412 16.4763L74.3132 17.4597L76.4998 20.2394L85.7647 32H81.5832L74.3873 22.8483L67.0124 31.9906H62.5806L72.1977 20.0687L71.4256 19.0852L61.0148 31.9906H57L57.9574 30.8047C59.9371 28.3539 63.3959 24.0627 69.4429 16.5743L58.1859 2.26492L57.1916 1H59.4213ZM74.3842 22.8483L73.7881 22.0863L74.3873 22.8483H74.3842Z" fill="#F2443F"/>
<path d="M25 1H0V5H25V1Z" fill="#2699E3"/>
<path d="M25 28H0V32H25V28Z" fill="#2699E3"/>
<path fill-rule="evenodd" clip-rule="evenodd" d="M0 6H25V9.06019H7.84091V12.7885H25V16H0V6ZM5.23297 9.54084H3.92473V13.4424H5.23297V9.54084Z" fill="#2699E3"/>
<path fill-rule="evenodd" clip-rule="evenodd" d="M0 17H25V20.0601H7.84091V23.7885H25V27H0V17ZM5.23297 19.6753H3.92473V23.5769H5.23297V19.6753Z" fill="#2699E3"/>
</g>
<path d="M111.774 12.5936H106.886V14.5048H111.373V16.0678H106.886V18.382H112V20H105V11H111.774V12.5936Z" fill="white"/>
<path d="M115.663 13C116.349 13 116.909 13.186 117.343 13.5582C117.781 13.9262 118 14.5388 118 15.396V20H116.223V15.8414C116.223 15.4818 116.176 15.2058 116.083 15.0135C115.913 14.6622 115.588 14.4866 115.11 14.4866C114.521 14.4866 114.118 14.7437 113.899 15.2581C113.785 15.5299 113.728 15.8769 113.728 16.2993V20H112V13.1757H113.673V14.1729C113.897 13.8216 114.108 13.5687 114.306 13.414C114.663 13.1379 115.116 13 115.663 13Z" fill="white"/>
<path d="M122.051 18.0819C122.432 18.0819 122.753 17.9379 123.015 17.6498C123.277 17.3579 123.409 16.895 123.409 16.2613C123.409 15.6658 123.283 15.2125 123.032 14.9015C122.785 14.5903 122.452 14.4346 122.034 14.4346C121.464 14.4346 121.07 14.7056 120.854 15.2472C120.74 15.5352 120.683 15.8905 120.683 16.313C120.683 16.678 120.743 17.0025 120.865 17.2869C121.086 17.8169 121.481 18.0819 122.051 18.0819ZM121.646 13C121.958 13 122.23 13.048 122.462 13.1441C122.857 13.3092 123.177 13.6126 123.42 14.0544V13.1497H125V19.1075C125 19.918 124.865 20.5288 124.595 20.9398C124.131 21.6466 123.241 22 121.926 22C121.131 22 120.483 21.8425 119.981 21.5275C119.479 21.2125 119.202 20.7419 119.148 20.1158H120.916C120.962 20.3079 121.036 20.4462 121.139 20.5307C121.314 20.6806 121.608 20.7555 122.023 20.7555C122.608 20.7555 123 20.5576 123.198 20.162C123.327 19.9084 123.392 19.4821 123.392 18.8828V18.4795C123.236 18.7484 123.068 18.9501 122.89 19.0845C122.567 19.3342 122.146 19.4591 121.629 19.4591C120.831 19.4591 120.192 19.1766 119.713 18.612C119.238 18.0436 119 17.2752 119 16.3073C119 15.3738 119.23 14.5903 119.69 13.9564C120.15 13.3188 120.802 13 121.646 13Z" fill="white"/>
<path d="M129 12.5961H127V11H129V12.5961ZM127 13.385H129V20H127V13.385Z" fill="white"/>
<path d="M134.664 13C135.349 13 135.909 13.186 136.344 13.5582C136.781 13.9262 137 14.5388 137 15.396V20H135.224V15.8414C135.224 15.4818 135.177 15.2058 135.083 15.0135C134.914 14.6622 134.589 14.4866 134.11 14.4866C133.521 14.4866 133.117 14.7437 132.898 15.2581C132.784 15.5299 132.728 15.8769 132.728 16.2993V20H131V13.1757H132.673V14.1729C132.897 13.8216 133.108 13.5687 133.307 13.414C133.664 13.1379 134.116 13 134.664 13Z" fill="white"/>
<path d="M140.995 14.4242C140.613 14.4242 140.314 14.5494 140.101 14.7999C139.892 15.0506 139.761 15.3899 139.707 15.8182H142.279C142.251 15.3616 142.119 15.0161 141.879 14.7818C141.642 14.5435 141.349 14.4242 140.995 14.4242ZM140.995 13C141.522 13 141.996 13.103 142.418 13.3091C142.84 13.5151 143.189 13.8404 143.464 14.2848C143.711 14.6768 143.872 15.1314 143.946 15.6485C143.988 15.9516 144.006 16.3879 143.998 16.9575H139.667C139.69 17.6203 139.888 18.0849 140.265 18.3515C140.493 18.5172 140.767 18.6 141.088 18.6C141.429 18.6 141.706 18.499 141.919 18.297C142.035 18.1879 142.138 18.0363 142.227 17.8424H143.917C143.873 18.2344 143.678 18.6324 143.33 19.0363C142.788 19.6788 142.029 20 141.054 20C140.249 20 139.539 19.7293 138.923 19.1879C138.307 18.6465 138 17.7657 138 16.5455C138 15.402 138.277 14.5252 138.83 13.9152C139.387 13.3051 140.109 13 140.995 13Z" fill="white"/>
<path d="M146.996 14.4242C146.613 14.4242 146.315 14.5494 146.102 14.7999C145.893 15.0506 145.761 15.3899 145.706 15.8182H148.28C148.252 15.3616 148.12 15.0161 147.878 14.7818C147.643 14.5435 147.348 14.4242 146.996 14.4242ZM146.996 13C147.523 13 147.997 13.103 148.419 13.3091C148.841 13.5151 149.19 13.8404 149.464 14.2848C149.713 14.6768 149.873 15.1314 149.946 15.6485C149.989 15.9516 150.006 16.3879 149.998 16.9575H145.667C145.69 17.6203 145.889 18.0849 146.265 18.3515C146.493 18.5172 146.768 18.6 147.089 18.6C147.43 18.6 147.706 18.499 147.919 18.297C148.035 18.1879 148.139 18.0363 148.228 17.8424H149.918C149.874 18.2344 149.679 18.6324 149.331 19.0363C148.789 19.6788 148.03 20 147.055 20C146.249 20 145.538 19.7293 144.923 19.1879C144.307 18.6465 144 17.7657 144 16.5455C144 15.402 144.277 14.5252 144.83 13.9152C145.388 13.3051 146.11 13 146.996 13Z" fill="white"/>
<path d="M155.76 13C155.793 13 155.821 13.0021 155.842 13.0063C155.867 13.0063 155.92 13.0084 156 13.0125V14.844C155.886 14.8315 155.785 14.8232 155.696 14.819C155.607 14.8148 155.537 14.8128 155.481 14.8128C154.757 14.8128 154.271 15.0469 154.023 15.5153C153.883 15.7787 153.813 16.1842 153.813 16.7321V20H152V13.163H153.719V14.3549C153.997 13.899 154.239 13.5876 154.446 13.4202C154.782 13.1402 155.22 13 155.76 13Z" fill="white"/>
<path d="M159 12.5961H157V11H159V12.5961ZM157 13.385H159V20H157V13.385Z" fill="white"/>
<path d="M163.663 13C164.348 13 164.908 13.186 165.343 13.5582C165.781 13.9262 166 14.5388 166 15.396V20H164.223V15.8414C164.223 15.4818 164.176 15.2058 164.084 15.0135C163.913 14.6622 163.588 14.4866 163.11 14.4866C162.522 14.4866 162.118 14.7437 161.899 15.2581C161.785 15.5299 161.728 15.8769 161.728 16.2993V20H160V13.1757H161.673V14.1729C161.896 13.8216 162.107 13.5687 162.306 13.414C162.663 13.1379 163.116 13 163.663 13Z" fill="white"/>
<path d="M170.051 18.0819C170.431 18.0819 170.753 17.9379 171.015 17.6498C171.278 17.3579 171.409 16.895 171.409 16.2613C171.409 15.6658 171.283 15.2125 171.032 14.9015C170.785 14.5903 170.452 14.4346 170.034 14.4346C169.464 14.4346 169.071 14.7056 168.854 15.2472C168.74 15.5352 168.682 15.8905 168.682 16.313C168.682 16.678 168.744 17.0025 168.865 17.2869C169.086 17.8169 169.481 18.0819 170.051 18.0819ZM169.647 13C169.957 13 170.23 13.048 170.462 13.1441C170.857 13.3092 171.176 13.6126 171.42 14.0544V13.1497H173V19.1075C173 19.918 172.865 20.5288 172.595 20.9398C172.131 21.6466 171.241 22 169.926 22C169.131 22 168.483 21.8425 167.981 21.5275C167.478 21.2125 167.202 20.7419 167.148 20.1158H168.917C168.962 20.3079 169.036 20.4462 169.138 20.5307C169.314 20.6806 169.608 20.7555 170.023 20.7555C170.609 20.7555 171 20.5576 171.198 20.162C171.327 19.9084 171.392 19.4821 171.392 18.8828V18.4795C171.235 18.7484 171.068 18.9501 170.889 19.0845C170.566 19.3342 170.147 19.4591 169.629 19.4591C168.83 19.4591 168.191 19.1766 167.713 18.612C167.238 18.0436 167 17.2752 167 16.3073C167 15.3738 167.229 14.5903 167.69 13.9564C168.15 13.3188 168.803 13 169.647 13Z" fill="white"/>
<path d="M103 26.5321C103 25.0312 103.421 23.8743 104.263 23.0615C104.995 22.3539 105.927 22 107.058 22C108.571 22 109.678 22.4745 110.378 23.4233C110.764 23.9559 110.972 24.4906 111 25.0272H109.121C108.998 24.6151 108.842 24.304 108.651 24.094C108.309 23.7207 107.802 23.5341 107.131 23.5341C106.448 23.5341 105.909 23.7985 105.514 24.3273C105.119 24.8522 104.922 25.5968 104.922 26.5613C104.922 27.5256 105.13 28.2489 105.545 28.731C105.964 29.2093 106.494 29.4485 107.137 29.4485C107.796 29.4485 108.299 29.2424 108.645 28.8302C108.836 28.6085 108.994 28.276 109.121 27.8328H110.982C110.819 28.77 110.402 29.532 109.731 30.1192C109.064 30.7064 108.207 31 107.162 31C105.868 31 104.851 30.6033 104.111 29.8101C103.37 29.013 103 27.9203 103 26.5321Z" fill="white"/>
<path d="M115.967 27.567C115.861 27.636 115.753 27.6928 115.643 27.7374C115.538 27.7779 115.391 27.8166 115.203 27.853L114.827 27.926C114.474 27.991 114.221 28.0701 114.068 28.1635C113.81 28.3217 113.681 28.5673 113.681 28.9C113.681 29.1963 113.759 29.4114 113.916 29.5452C114.076 29.6751 114.27 29.7399 114.497 29.7399C114.858 29.7399 115.189 29.6305 115.491 29.4114C115.796 29.1921 115.955 28.7924 115.967 28.2121V27.567ZM114.95 26.7574C115.26 26.7168 115.481 26.6661 115.614 26.6053C115.853 26.4997 115.973 26.3354 115.973 26.1121C115.973 25.8404 115.881 25.6536 115.696 25.5522C115.516 25.4467 115.25 25.3939 114.897 25.3939C114.501 25.3939 114.221 25.4953 114.057 25.6983C113.939 25.8484 113.861 26.0513 113.822 26.3069H112.206C112.241 25.7267 112.398 25.2499 112.676 24.8765C113.118 24.2922 113.879 24 114.956 24C115.657 24 116.28 24.1441 116.825 24.4322C117.369 24.7203 117.642 25.2641 117.642 26.0635V29.107C117.642 29.3179 117.645 29.5736 117.653 29.8739C117.665 30.1011 117.698 30.2554 117.753 30.3365C117.808 30.4177 117.89 30.4847 118 30.5373V30.7931H116.178C116.127 30.6591 116.092 30.5333 116.072 30.4157C116.053 30.2979 116.037 30.1641 116.025 30.0138C115.794 30.2736 115.528 30.4947 115.226 30.6773C114.866 30.8924 114.458 31 114.004 31C113.424 31 112.944 30.8296 112.564 30.4887C112.188 30.1438 112 29.6568 112 29.0278C112 28.2121 112.304 27.6218 112.911 27.2566C113.244 27.0577 113.734 26.9157 114.38 26.8304L114.95 26.7574Z" fill="white"/>
<path d="M122.76 24C122.794 24 122.821 24.0021 122.842 24.0063C122.867 24.0063 122.92 24.0084 123 24.0125V25.8441C122.886 25.8315 122.785 25.8231 122.697 25.819C122.608 25.8149 122.537 25.8127 122.482 25.8127C121.757 25.8127 121.271 26.0469 121.022 26.5152C120.883 26.7787 120.814 27.1843 120.814 27.7321V31H119V24.1631H120.719V25.3549C120.997 24.8991 121.239 24.5875 121.445 24.4203C121.783 24.1401 122.221 24 122.76 24Z" fill="white"/>
<path d="M125.996 25.4242C125.613 25.4242 125.315 25.5494 125.102 25.7999C124.893 26.0504 124.761 26.3899 124.707 26.8182H127.279C127.252 26.3616 127.119 26.0161 126.879 25.7818C126.643 25.5435 126.349 25.4242 125.996 25.4242ZM125.996 24C126.523 24 126.997 24.103 127.419 24.3091C127.841 24.5151 128.189 24.8404 128.464 25.2848C128.712 25.6767 128.872 26.1312 128.946 26.6485C128.989 26.9514 129.006 27.3879 128.998 27.9575H124.666C124.69 28.6201 124.889 29.0848 125.265 29.3515C125.493 29.5171 125.768 29.6 126.089 29.6C126.43 29.6 126.707 29.499 126.919 29.297C127.036 29.1878 127.138 29.0363 127.227 28.8424H128.917C128.874 29.2343 128.679 29.6322 128.33 30.0363C127.789 30.6788 127.03 31 126.054 31C125.249 31 124.539 30.7293 123.923 30.1878C123.308 29.6465 123 28.7656 123 27.5455C123 26.402 123.277 25.5252 123.83 24.9151C124.388 24.3051 125.11 24 125.996 24Z" fill="white"/>
<path d="M132.996 25.4242C132.613 25.4242 132.314 25.5494 132.103 25.7999C131.893 26.0504 131.761 26.3899 131.707 26.8182H134.279C134.253 26.3616 134.119 26.0161 133.879 25.7818C133.643 25.5435 133.348 25.4242 132.996 25.4242ZM132.996 24C133.523 24 133.996 24.103 134.418 24.3091C134.84 24.5151 135.189 24.8404 135.464 25.2848C135.711 25.6767 135.872 26.1312 135.946 26.6485C135.988 26.9514 136.006 27.3879 135.998 27.9575H131.666C131.689 28.6201 131.89 29.0848 132.264 29.3515C132.493 29.5171 132.768 29.6 133.09 29.6C133.43 29.6 133.707 29.499 133.92 29.297C134.036 29.1878 134.138 29.0363 134.227 28.8424H135.917C135.875 29.2343 135.678 29.6322 135.33 30.0363C134.788 30.6788 134.029 31 133.054 31C132.249 31 131.539 30.7293 130.923 30.1878C130.308 29.6465 130 28.7656 130 27.5455C130 26.402 130.277 25.5252 130.83 24.9151C131.387 24.3051 132.11 24 132.996 24Z" fill="white"/>
<path d="M141.76 24C141.793 24 141.821 24.0021 141.842 24.0063C141.868 24.0063 141.921 24.0084 142 24.0125V25.8441C141.886 25.8315 141.785 25.8231 141.697 25.819C141.609 25.8149 141.536 25.8127 141.482 25.8127C140.758 25.8127 140.271 26.0469 140.022 26.5152C139.883 26.7787 139.814 27.1843 139.814 27.7321V31H138V24.1631H139.718V25.3549C139.997 24.8991 140.239 24.5875 140.446 24.4203C140.783 24.1401 141.221 24 141.76 24Z" fill="white"/>
<path d="M152.774 23.5937H147.887V25.5048H152.374V27.0678H147.887V29.3819H153V31H146V22H152.774V23.5937Z" fill="white"/>
<path d="M153 31L155.07 27.9559L153.089 25H155.031L156.045 26.7427L157.035 25H158.922L156.93 27.9282L159 31H157.024L155.977 29.1966L154.926 31H153Z" fill="white"/>
<path d="M165.325 27.3189C165.325 26.8289 165.214 26.3953 164.994 26.0182C164.778 25.6409 164.424 25.4524 163.934 25.4524C163.345 25.4524 162.941 25.7382 162.721 26.3099C162.607 26.6131 162.549 26.9981 162.549 27.4647C162.549 28.2035 162.742 28.7226 163.125 29.0221C163.352 29.197 163.623 29.2845 163.934 29.2845C164.386 29.2845 164.73 29.1056 164.965 28.7479C165.204 28.3902 165.325 27.9138 165.325 27.3189ZM164.401 24C165.127 24 165.74 24.2741 166.242 24.8225C166.747 25.3708 167 26.1756 167 27.2372C167 28.3571 166.752 29.2106 166.259 29.7978C165.769 30.3849 165.137 30.6785 164.361 30.6785C163.868 30.6785 163.458 30.5522 163.131 30.2993C162.952 30.1594 162.778 29.9553 162.607 29.6869V33H161V24.14H162.555V25.0791C162.731 24.803 162.916 24.5853 163.113 24.4258C163.475 24.1419 163.904 24 164.401 24Z" fill="white"/>
<path d="M171.494 29.5614C172.018 29.5614 172.421 29.383 172.701 29.0258C172.981 28.6687 173.122 28.1611 173.122 27.503C173.122 26.845 172.981 26.3394 172.701 25.9863C172.421 25.6292 172.018 25.4506 171.494 25.4506C170.97 25.4506 170.566 25.6292 170.281 25.9863C170.001 26.3394 169.86 26.845 169.86 27.503C169.86 28.1611 170.001 28.6687 170.281 29.0258C170.566 29.383 170.97 29.5614 171.494 29.5614ZM175 27.503C175 28.466 174.712 29.2906 174.133 29.9768C173.555 30.659 172.677 31 171.5 31C170.323 31 169.445 30.659 168.867 29.9768C168.288 29.2906 168 28.466 168 27.503C168 26.5561 168.288 25.7355 168.867 25.0414C169.445 24.3471 170.323 24 171.5 24C172.677 24 173.555 24.3471 174.133 25.0414C174.712 25.7355 175 26.5561 175 27.503Z" fill="white"/>
</svg>
