<svg width="134" height="26" viewBox="0 0 134 26" fill="none" xmlns="http://www.w3.org/2000/svg">
<g id="ecx 1" clip-path="url(#clip0_129_4579)">
<g id="Clip path group">
<mask id="mask0_129_4579" style="mask-type:luminance" maskUnits="userSpaceOnUse" x="0" y="0" width="71" height="25">
<g id="clip0_3825_3">
<path id="Vector" d="M70.6055 0.317383H0V24.9627H70.6055V0.317383Z" fill="white"/>
</g>
</mask>
<g mask="url(#mask0_129_4579)">
<g id="Group">
<path id="Vector_2" fill-rule="evenodd" clip-rule="evenodd" d="M33.2421 2.78897C34.5764 2.78741 35.8967 3.06351 37.1209 3.60007C38.345 4.13664 39.4468 4.92218 40.3576 5.9078L42.0885 4.16058C40.6228 2.60057 38.7785 1.4558 36.7392 0.84021C34.6998 0.224621 32.5365 0.159684 30.4645 0.651864C28.3926 1.14404 26.4844 2.17617 24.9297 3.64552C23.375 5.11486 22.2282 6.97017 21.6034 9.02677C20.9785 11.0834 20.8975 13.2695 21.3683 15.3676C21.839 17.4657 22.8452 19.4026 24.2867 20.9855C25.7282 22.5683 27.5547 23.742 29.5843 24.3896C31.614 25.0371 33.776 25.1361 35.8553 24.6765V24.6499H35.9728C38.1879 24.1341 40.2159 23.0016 41.8272 21.3808L40.0963 19.6336C38.9594 20.7735 37.5621 21.6127 36.028 22.0769C34.4939 22.5411 32.8703 22.616 31.3008 22.2951C29.7312 21.9741 28.2641 21.2671 27.0292 20.2366C25.7942 19.2062 24.8295 17.884 24.2204 16.387C23.6113 14.89 23.3765 13.2643 23.5367 11.6538C23.697 10.0432 24.2475 8.49741 25.1394 7.15306C26.0313 5.80871 27.2372 4.70724 28.6505 3.94607C30.0637 3.1849 31.6408 2.78748 33.2421 2.78897ZM33.2421 18.8339C34.8577 18.8393 36.4095 18.197 37.5574 17.0479L39.202 18.7079C38.0073 19.9067 36.4856 20.7175 34.8319 21.0364C33.1783 21.3552 31.4681 21.1676 29.9207 20.4975C28.3732 19.8274 27.0591 18.7054 26.1466 17.2754C25.2342 15.8453 24.7651 14.1724 24.7994 12.4711C24.8338 10.7698 25.37 9.11761 26.3394 7.72639C27.3088 6.33518 28.6672 5.26832 30.2404 4.66261C31.8136 4.05691 33.5299 3.93995 35.1693 4.32673C36.8087 4.71351 38.2964 5.58641 39.4418 6.83352C38.8808 7.40058 38.3326 7.95471 37.7972 8.49592C37.1139 7.72863 36.2518 7.14613 35.2891 6.80137C34.3264 6.45662 33.2938 6.36055 32.285 6.5219C31.2763 6.68325 30.3234 7.0969 29.5131 7.72525C28.7027 8.3536 28.0606 9.17671 27.6451 10.1198C27.2296 11.0628 27.0538 12.0959 27.1338 13.1251C27.2139 14.1542 27.5471 15.1469 28.1032 16.0128C28.6594 16.8786 29.4208 17.5903 30.3183 18.0829C31.2158 18.5756 32.2208 18.8338 33.2421 18.8339Z" fill="#FAB12D"/>
<path id="Vector_3" fill-rule="evenodd" clip-rule="evenodd" d="M67.1682 0.901367L59.2017 10.6529L58.5999 9.89921L59.0674 9.32973L59.0962 9.29338L59.1585 9.21583L59.1969 9.17221L59.252 9.10194L59.2976 9.04862L59.3479 8.98804L59.3983 8.92261L59.4414 8.87172L59.5013 8.79902L59.5349 8.7554L59.6044 8.673L59.6308 8.63908L59.7075 8.54699L59.7267 8.52276L59.8106 8.42098L59.8226 8.40401L59.9137 8.29254L60.012 8.1738L60.1055 8.05748L60.1918 7.95085L60.211 7.92904L60.2901 7.82968L60.3165 7.79818L60.3884 7.70852L60.4243 7.66732L60.4891 7.58735L60.5298 7.53646L60.5874 7.46618L60.6377 7.40318L60.688 7.34259L60.748 7.27232L60.7887 7.219L60.8559 7.13903L60.8894 7.09541L60.9661 7.00333L60.9925 6.97182L61.0764 6.87004L61.0932 6.84823L61.1867 6.73434V6.72222L61.2874 6.59863L61.3905 6.47262L61.4864 6.35387L61.5008 6.33691L61.5919 6.22544L61.6134 6.19878L61.6973 6.09942L61.7285 6.06065L61.8028 5.96856L61.8412 5.9201L61.9083 5.84013L61.9563 5.77954L62.0138 5.70927L62.0713 5.63899L62.1193 5.5784L62.1864 5.49843L62.2272 5.44755L62.3015 5.35546L62.3351 5.31668L62.419 5.2149L62.4429 5.1834L62.5364 5.0695L62.5508 5.05012L62.6539 4.92653L62.7642 4.79324L62.8745 4.65996V4.64784L62.9752 4.52668L62.9943 4.50244L63.0854 4.39097L63.1142 4.35462L63.1957 4.25284L63.2341 4.2068L63.3084 4.11713L63.3539 4.05897L63.4211 3.979L63.4762 3.91115L63.5338 3.84087L63.5985 3.7609L63.6488 3.70032L63.7207 3.61066L63.7615 3.56219L63.8454 3.46041L63.8766 3.42164L63.9701 3.30774L63.9917 3.28108L64.0923 3.15507L64.1067 3.14053L64.2194 3.0024L64.3369 2.85942L64.4495 2.72129L64.4639 2.70433L64.5646 2.57832L64.591 2.54924L64.6845 2.43534L64.7181 2.39414L64.802 2.28994L64.8451 2.23663L64.9218 2.14454L64.9746 2.07911L65.0393 1.99671L65.104 1.92159L65.1592 1.85131L65.2335 1.76165L65.2814 1.70349L65.363 1.60171L65.4013 1.55567L65.4948 1.44177L65.5236 1.40784L65.6243 1.28183L65.6459 1.2576L65.7585 1.11947V1.10735L65.8808 0.957104H62.7642L62.6731 1.06858L62.5916 1.16793L62.5748 1.18974L62.5005 1.27941L62.4741 1.31091L62.4118 1.38846L62.3758 1.43208L62.3207 1.49993L62.2775 1.55324L62.232 1.60898L62.1792 1.67441L62.1409 1.71803L62.0809 1.79315L62.0522 1.8295L61.9826 1.91432L61.9635 1.93855L61.8843 2.03306L61.798 2.13969L61.7093 2.24874L61.6302 2.3481L61.6134 2.36749L61.5415 2.45473L61.5175 2.48381L61.4552 2.56135L61.4217 2.60255L61.3665 2.66798L61.3258 2.71887L61.2802 2.77461L61.2299 2.83519L61.1939 2.88123L61.1364 2.95151L61.1076 2.98786L61.0405 3.06783L61.0213 3.09206L60.947 3.18415L60.8655 3.28593L60.7792 3.39013L60.6976 3.48949L60.6857 3.50403L60.6137 3.59127L60.5922 3.61793L60.5298 3.69547L60.4987 3.73182L60.4459 3.79968L60.4076 3.84572L60.362 3.90146L60.3141 3.95719L60.2781 4.00324L60.223 4.07109L60.1942 4.10744L60.1319 4.18256L60.1103 4.20922L60.0408 4.29404L60.0288 4.311L59.9497 4.40551L59.8681 4.50729L59.789 4.60422V4.61634L59.7171 4.70358L59.6979 4.72781L59.6356 4.80294L59.6092 4.83686L59.5541 4.90229L59.5181 4.94591L59.4726 5.00165L59.4294 5.05496L59.3911 5.10101L59.3407 5.16401L59.3119 5.20036L59.252 5.27307L59.2304 5.29972L59.1657 5.37969L59.1513 5.39665L59.077 5.48874L58.9979 5.58567L58.9212 5.68018V5.6923L58.8516 5.77712L58.8349 5.79893L58.7725 5.87405L58.7486 5.90313L58.6934 5.97099L58.6623 6.00976L58.6143 6.0655L58.5759 6.11639L58.5376 6.16243L58.4896 6.22059L58.4585 6.25694L58.4033 6.32479L58.3818 6.35145L58.3194 6.429L58.305 6.44596L58.2331 6.5332L58.1564 6.62771L58.0797 6.72222L58.0102 6.80704L57.9958 6.824L57.8591 6.99363L57.828 7.02998L57.7824 7.08572L57.7464 7.13176L57.7081 7.17781L57.6625 7.23354L57.6314 7.26989L57.581 7.3329L57.5571 7.36198L57.0584 7.96781L51.4269 0.901367H48.0178L55.3347 10.081L56.8762 12.0196L57.4755 12.7709L59.1729 14.901L66.9524 24.6573H70.3615L60.8942 12.783L70.6012 0.908637L67.1682 0.901367ZM45.3112 0.901367H46.8191L54.7305 10.8225L56.2721 12.7612L56.8714 13.5148L58.5688 15.6449L65.7609 24.6573H62.5149L56.9289 17.6442L51.204 24.6501H47.7637L55.2292 15.5141L54.6298 14.7604L46.5482 24.6501H43.4316L44.1748 23.7413C45.7116 21.8632 48.3966 18.5748 53.0907 12.8363L44.3522 1.8707L43.5803 0.901367H45.3112ZM56.9265 17.6442L56.4638 17.0602L56.9289 17.6442H56.9265Z" fill="#F2443F"/>
<path id="Vector_4" d="M19.1096 0.901367H0V3.61066H19.1096V0.901367Z" fill="#2699E3"/>
<path id="Vector_5" d="M19.1096 21.9404H0V24.6497H19.1096V21.9404Z" fill="#2699E3"/>
<path id="Vector_6" fill-rule="evenodd" clip-rule="evenodd" d="M0 4.59473H19.1096V6.94779H5.99347V9.81459H19.1096V12.284H0V4.59473ZM4 7.31738H3V10.3174H4V7.31738Z" fill="#2699E3"/>
<path id="Vector_7" fill-rule="evenodd" clip-rule="evenodd" d="M0 13.2603H19.1096V15.6133H5.99347V18.4801H19.1096V20.9495H0V13.2603ZM4 15.3174H3V18.3174H4V15.3174Z" fill="#2699E3"/>
</g>
</g>
</g>
<path id="Vector_8" d="M84.9507 9.5468H81.3991V10.972H84.6593V12.1376H81.3991V13.8634H85.1146V15.07H80.0286V8.35837H84.9507V9.5468Z" fill="#424242"/>
<path id="Vector_9" d="M88.8529 9.98846C89.3659 9.98846 89.7849 10.1235 90.1097 10.3937C90.4375 10.6608 90.6014 11.1055 90.6014 11.7278V15.07H89.2718V12.0511C89.2718 11.7901 89.2369 11.5897 89.1671 11.4501C89.0396 11.1951 88.7968 11.0676 88.4386 11.0676C87.9984 11.0676 87.6964 11.2543 87.5325 11.6277C87.4475 11.825 87.405 12.0769 87.405 12.3835V15.07H86.1118V10.116H87.364V10.8399C87.531 10.5849 87.6888 10.4013 87.8375 10.289C88.1047 10.0886 88.4431 9.98846 88.8529 9.98846Z" fill="#424242"/>
<path id="Vector_10" d="M93.9345 14.0045C94.238 14.0045 94.4945 13.8907 94.704 13.663C94.9134 13.4323 95.0182 13.0665 95.0182 12.5657C95.0182 12.0951 94.918 11.7369 94.7177 11.4911C94.5203 11.2452 94.2547 11.1222 93.9208 11.1222C93.4655 11.1222 93.1513 11.3363 92.9783 11.7643C92.8872 11.9919 92.8417 12.2727 92.8417 12.6066C92.8417 12.895 92.8902 13.1515 92.9874 13.3762C93.1634 13.7951 93.4791 14.0045 93.9345 14.0045ZM93.6112 9.98846C93.8601 9.98846 94.0771 10.0264 94.2623 10.1023C94.578 10.2328 94.833 10.4726 95.0273 10.8217V10.1068H96.2886V14.815C96.2886 15.4555 96.1808 15.9382 95.9653 16.263C95.5949 16.8215 94.8846 17.1008 93.8343 17.1008C93.1999 17.1008 92.6823 16.9763 92.2816 16.7274C91.8809 16.4785 91.6593 16.1066 91.6168 15.6118H93.0284C93.0648 15.7636 93.124 15.8729 93.2059 15.9397C93.3456 16.0581 93.5808 16.1173 93.9117 16.1173C94.3792 16.1173 94.6918 15.9609 94.8497 15.6483C94.9529 15.4479 95.0045 15.111 95.0045 14.6374V14.3187C94.8801 14.5312 94.7465 14.6906 94.6038 14.7968C94.3458 14.9941 94.0104 15.0928 93.5975 15.0928C92.9601 15.0928 92.4501 14.8696 92.0676 14.4234C91.6882 13.9742 91.4984 13.367 91.4984 12.6021C91.4984 11.8644 91.6821 11.2452 92.0494 10.7443C92.4167 10.2404 92.9373 9.98846 93.6112 9.98846Z" fill="#424242"/>
<path id="Vector_11" d="M98.8384 9.51491H97.5225V8.31738H98.8384V9.51491ZM97.5225 10.1068H98.8384V15.07H97.5225V10.1068Z" fill="#424242"/>
<path id="Vector_12" d="M102.85 9.98846C103.363 9.98846 103.782 10.1235 104.107 10.3937C104.434 10.6608 104.598 11.1055 104.598 11.7278V15.07H103.269V12.0511C103.269 11.7901 103.234 11.5897 103.164 11.4501C103.037 11.1951 102.794 11.0676 102.436 11.0676C101.995 11.0676 101.693 11.2543 101.529 11.6277C101.444 11.825 101.402 12.0769 101.402 12.3835V15.07H100.109V10.116H101.361V10.8399C101.528 10.5849 101.686 10.4013 101.835 10.289C102.102 10.0886 102.44 9.98846 102.85 9.98846Z" fill="#424242"/>
<path id="Vector_13" d="M107.758 11.0448C107.458 11.0448 107.224 11.1389 107.057 11.3271C106.893 11.5154 106.79 11.7703 106.748 12.0921H108.765C108.743 11.7491 108.639 11.4895 108.451 11.3135C108.265 11.1344 108.035 11.0448 107.758 11.0448ZM107.758 9.97479C108.171 9.97479 108.543 10.0522 108.874 10.207C109.205 10.3618 109.478 10.6062 109.694 10.9401C109.888 11.2346 110.014 11.5761 110.072 11.9646C110.105 12.1923 110.119 12.5201 110.113 12.9481H106.716C106.734 13.446 106.89 13.7951 107.185 13.9954C107.364 14.1199 107.579 14.1821 107.831 14.1821C108.098 14.1821 108.315 14.1062 108.482 13.9544C108.573 13.8725 108.654 13.7586 108.724 13.6129H110.049C110.015 13.9074 109.862 14.2064 109.589 14.5099C109.164 14.9926 108.569 15.2339 107.804 15.2339C107.173 15.2339 106.616 15.0305 106.133 14.6238C105.65 14.217 105.409 13.5553 105.409 12.6385C105.409 11.7794 105.626 11.1207 106.06 10.6624C106.497 10.204 107.063 9.97479 107.758 9.97479Z" fill="#424242"/>
<path id="Vector_14" d="M112.949 11.0448C112.649 11.0448 112.415 11.1389 112.248 11.3271C112.084 11.5154 111.981 11.7703 111.938 12.0921H113.956C113.934 11.7491 113.83 11.4895 113.641 11.3135C113.456 11.1344 113.225 11.0448 112.949 11.0448ZM112.949 9.97479C113.362 9.97479 113.734 10.0522 114.065 10.207C114.396 10.3618 114.669 10.6062 114.884 10.9401C115.079 11.2346 115.205 11.5761 115.262 11.9646C115.296 12.1923 115.309 12.5201 115.303 12.9481H111.907C111.925 13.446 112.081 13.7951 112.376 13.9954C112.555 14.1199 112.77 14.1821 113.022 14.1821C113.289 14.1821 113.506 14.1062 113.673 13.9544C113.764 13.8725 113.845 13.7586 113.915 13.6129H115.24C115.206 13.9074 115.053 14.2064 114.78 14.5099C114.355 14.9926 113.76 15.2339 112.995 15.2339C112.363 15.2339 111.806 15.0305 111.324 14.6238C110.841 14.217 110.6 13.5553 110.6 12.6385C110.6 11.7794 110.817 11.1207 111.251 10.6624C111.688 10.204 112.254 9.97479 112.949 9.97479Z" fill="#424242"/>
<path id="Vector_15" d="M118.878 9.98846C118.902 9.98846 118.922 9.98998 118.937 9.99301C118.955 9.99301 118.993 9.99453 119.051 9.99757V11.3271C118.969 11.318 118.896 11.312 118.832 11.3089C118.768 11.3059 118.717 11.3044 118.677 11.3044C118.155 11.3044 117.805 11.4744 117.626 11.8144C117.525 12.0056 117.475 12.3 117.475 12.6977V15.07H116.168V10.1068H117.407V10.972C117.607 10.6411 117.782 10.415 117.931 10.2935C118.173 10.0902 118.489 9.98846 118.878 9.98846Z" fill="#424242"/>
<path id="Vector_16" d="M121.15 9.51491H119.834V8.31738H121.15V9.51491ZM119.834 10.1068H121.15V15.07H119.834V10.1068Z" fill="#424242"/>
<path id="Vector_17" d="M125.161 9.98846C125.674 9.98846 126.093 10.1235 126.418 10.3937C126.746 10.6608 126.91 11.1055 126.91 11.7278V15.07H125.58V12.0511C125.58 11.7901 125.545 11.5897 125.476 11.4501C125.348 11.1951 125.105 11.0676 124.747 11.0676C124.307 11.0676 124.005 11.2543 123.841 11.6277C123.756 11.825 123.713 12.0769 123.713 12.3835V15.07H122.42V10.116H123.672V10.8399C123.839 10.5849 123.997 10.4013 124.146 10.289C124.413 10.0886 124.752 9.98846 125.161 9.98846Z" fill="#424242"/>
<path id="Vector_18" d="M130.243 14.0045C130.546 14.0045 130.803 13.8907 131.012 13.663C131.222 13.4323 131.327 13.0665 131.327 12.5657C131.327 12.0951 131.226 11.7369 131.026 11.4911C130.829 11.2452 130.563 11.1222 130.229 11.1222C129.774 11.1222 129.46 11.3363 129.287 11.7643C129.196 11.9919 129.15 12.2727 129.15 12.6066C129.15 12.895 129.199 13.1515 129.296 13.3762C129.472 13.7951 129.788 14.0045 130.243 14.0045ZM129.92 9.98846C130.168 9.98846 130.386 10.0264 130.571 10.1023C130.886 10.2328 131.141 10.4726 131.336 10.8217V10.1068H132.597V14.815C132.597 15.4555 132.489 15.9382 132.274 16.263C131.903 16.8215 131.193 17.1008 130.143 17.1008C129.508 17.1008 128.991 16.9763 128.59 16.7274C128.189 16.4785 127.968 16.1066 127.925 15.6118H129.337C129.373 15.7636 129.432 15.8729 129.514 15.9397C129.654 16.0581 129.889 16.1173 130.22 16.1173C130.688 16.1173 131 15.9609 131.158 15.6483C131.261 15.4479 131.313 15.111 131.313 14.6374V14.3187C131.188 14.5312 131.055 14.6906 130.912 14.7968C130.654 14.9941 130.319 15.0928 129.906 15.0928C129.268 15.0928 128.758 14.8696 128.376 14.4234C127.997 13.9742 127.807 13.367 127.807 12.6021C127.807 11.8644 127.99 11.2452 128.358 10.7443C128.725 10.2404 129.246 9.98846 129.92 9.98846Z" fill="#424242"/>
<path id="Vector_19" d="M79.168 20.428C79.168 19.2563 79.4821 18.3532 80.1105 17.7187C80.6569 17.1663 81.3521 16.89 82.1959 16.89C83.3252 16.89 84.1508 17.2604 84.673 18.0011C84.9613 18.4169 85.1162 18.8343 85.1374 19.2532H83.735C83.6439 18.9315 83.527 18.6886 83.3844 18.5247C83.1294 18.2333 82.7515 18.0876 82.2506 18.0876C81.7406 18.0876 81.3384 18.294 81.0439 18.7068C80.7495 19.1166 80.6023 19.6979 80.6023 20.4508C80.6023 21.2036 80.7571 21.7682 81.0667 22.1446C81.3794 22.518 81.7755 22.7047 82.2551 22.7047C82.7469 22.7047 83.1218 22.5438 83.3798 22.222C83.5225 22.049 83.6409 21.7894 83.735 21.4434H85.1237C85.0023 22.175 84.6912 22.7699 84.1903 23.2283C83.6925 23.6867 83.0535 23.9159 82.2734 23.9159C81.308 23.9159 80.5492 23.6062 79.9967 22.987C79.4442 22.3647 79.168 21.5117 79.168 20.428Z" fill="#424242"/>
<path id="Vector_20" d="M88.8302 21.3159C88.7482 21.3675 88.6647 21.41 88.5797 21.4434C88.4978 21.4737 88.3839 21.5026 88.2382 21.5299L87.9468 21.5845C87.6736 21.6331 87.4778 21.6923 87.3594 21.7621C87.1591 21.8805 87.0589 22.0642 87.0589 22.3131C87.0589 22.5347 87.1196 22.6956 87.2411 22.7957C87.3655 22.8929 87.5158 22.9414 87.6918 22.9414C87.9711 22.9414 88.2276 22.8595 88.4614 22.6956C88.6981 22.5316 88.8211 22.2326 88.8302 21.7985V21.3159ZM88.0424 20.7103C88.2823 20.6799 88.4538 20.642 88.557 20.5965C88.7421 20.5175 88.8347 20.3946 88.8347 20.2276C88.8347 20.0243 88.7634 19.8846 88.6207 19.8087C88.4811 19.7298 88.2747 19.6903 88.0015 19.6903C87.6949 19.6903 87.4778 19.7662 87.3503 19.918C87.2593 20.0303 87.1986 20.1821 87.1682 20.3733H85.916C85.9433 19.9393 86.0648 19.5826 86.2803 19.3033C86.6233 18.8662 87.2122 18.6476 88.047 18.6476C88.5904 18.6476 89.073 18.7554 89.495 18.9709C89.9169 19.1864 90.1279 19.5932 90.1279 20.1912V22.4679C90.1279 22.6257 90.1309 22.817 90.137 23.0416C90.1461 23.2116 90.1719 23.327 90.2144 23.3877C90.2569 23.4484 90.3206 23.4985 90.4056 23.5379V23.7292H88.9941C88.9546 23.629 88.9273 23.5349 88.9121 23.4469C88.897 23.3588 88.8848 23.2587 88.8757 23.1463C88.6966 23.3406 88.4902 23.506 88.2565 23.6426C87.9772 23.8035 87.6615 23.884 87.3094 23.884C86.8601 23.884 86.4882 23.7565 86.1938 23.5015C85.9024 23.2435 85.7567 22.8792 85.7567 22.4087C85.7567 21.7985 85.9919 21.3569 86.4624 21.0837C86.7205 20.9349 87.0999 20.8287 87.6008 20.7649L88.0424 20.7103Z" fill="#424242"/>
<path id="Vector_21" d="M93.98 18.6476C94.0043 18.6476 94.024 18.6491 94.0392 18.6522C94.0574 18.6522 94.0954 18.6537 94.153 18.6567V19.9863C94.0711 19.9772 93.9982 19.9711 93.9345 19.9681C93.8707 19.9651 93.8191 19.9635 93.7797 19.9635C93.2575 19.9635 92.9069 20.1335 92.7278 20.4735C92.6277 20.6648 92.5776 20.9592 92.5776 21.3569V23.7292H91.2708V18.766H92.5093V19.6312C92.7096 19.3003 92.8842 19.0741 93.0329 18.9527C93.2758 18.7493 93.5915 18.6476 93.98 18.6476Z" fill="#424242"/>
<path id="Vector_22" d="M96.8759 19.704C96.5754 19.704 96.3417 19.7981 96.1747 19.9863C96.0108 20.1745 95.9076 20.4295 95.8651 20.7513H97.8822C97.861 20.4083 97.7563 20.1487 97.568 19.9727C97.3829 19.7936 97.1522 19.704 96.8759 19.704ZM96.8759 18.634C97.2888 18.634 97.6606 18.7114 97.9915 18.8662C98.3224 19.021 98.5956 19.2654 98.8111 19.5993C99.0054 19.8937 99.1314 20.2352 99.189 20.6238C99.2224 20.8514 99.2361 21.1793 99.23 21.6073H95.8332C95.8514 22.1051 96.0078 22.4542 96.3022 22.6546C96.4813 22.779 96.6968 22.8413 96.9488 22.8413C97.2159 22.8413 97.433 22.7654 97.5999 22.6136C97.691 22.5316 97.7714 22.4178 97.8412 22.2721H99.1663C99.1329 22.5665 98.9796 22.8655 98.7064 23.1691C98.2814 23.6518 97.6864 23.8931 96.9215 23.8931C96.2901 23.8931 95.733 23.6897 95.2504 23.2829C94.7677 22.8762 94.5264 22.2144 94.5264 21.2977C94.5264 20.4386 94.7435 19.7799 95.1775 19.3215C95.6147 18.8632 96.1808 18.634 96.8759 18.634Z" fill="#424242"/>
<path id="Vector_23" d="M102.067 19.704C101.766 19.704 101.532 19.7981 101.366 19.9863C101.202 20.1745 101.098 20.4295 101.056 20.7513H103.073C103.052 20.4083 102.947 20.1487 102.759 19.9727C102.574 19.7936 102.343 19.704 102.067 19.704ZM102.067 18.634C102.48 18.634 102.851 18.7114 103.182 18.8662C103.513 19.021 103.786 19.2654 104.002 19.5993C104.196 19.8937 104.322 20.2352 104.38 20.6238C104.413 20.8514 104.427 21.1793 104.421 21.6073H101.024C101.042 22.1051 101.199 22.4542 101.493 22.6546C101.672 22.779 101.888 22.8413 102.14 22.8413C102.407 22.8413 102.624 22.7654 102.791 22.6136C102.882 22.5316 102.962 22.4178 103.032 22.2721H104.357C104.324 22.5665 104.17 22.8655 103.897 23.1691C103.472 23.6518 102.877 23.8931 102.112 23.8931C101.481 23.8931 100.924 23.6897 100.441 23.2829C99.9586 22.8762 99.7172 22.2144 99.7172 21.2977C99.7172 20.4386 99.9343 19.7799 100.368 19.3215C100.805 18.8632 101.372 18.634 102.067 18.634Z" fill="#424242"/>
<path id="Vector_24" d="M107.995 18.6476C108.019 18.6476 108.039 18.6491 108.054 18.6522C108.073 18.6522 108.111 18.6537 108.168 18.6567V19.9863C108.086 19.9772 108.013 19.9711 107.95 19.9681C107.886 19.9651 107.834 19.9635 107.795 19.9635C107.273 19.9635 106.922 20.1335 106.743 20.4735C106.643 20.6648 106.593 20.9592 106.593 21.3569V23.7292H105.286V18.766H106.524V19.6312C106.725 19.3003 106.899 19.0741 107.048 18.9527C107.291 18.7493 107.607 18.6476 107.995 18.6476Z" fill="#424242"/>
<path id="Vector_25" d="M116.596 18.206H113.045V19.6312H116.305V20.7968H113.045V22.5225H116.76V23.7292H111.674V17.0175H116.596V18.206Z" fill="#424242"/>
<path id="Vector_26" d="M117.261 23.7292L118.955 21.2157L117.334 18.7751H118.923L119.752 20.214L120.562 18.7751H122.106L120.476 21.1929L122.17 23.7292H120.553L119.697 22.2402L118.837 23.7292H117.261Z" fill="#424242"/>
<path id="Vector_27" d="M126.359 21.2476C126.359 20.8651 126.271 20.5266 126.095 20.2322C125.922 19.9377 125.639 19.7905 125.248 19.7905C124.777 19.7905 124.454 20.0136 124.278 20.4599C124.187 20.6966 124.141 20.9972 124.141 21.3614C124.141 21.9382 124.295 22.3434 124.601 22.5772C124.783 22.7138 124.999 22.7821 125.248 22.7821C125.609 22.7821 125.884 22.6424 126.072 22.3632C126.263 22.0839 126.359 21.712 126.359 21.2476ZM125.621 18.6567C126.201 18.6567 126.691 18.8707 127.092 19.2988C127.496 19.7268 127.698 20.3551 127.698 21.1838C127.698 22.0581 127.5 22.7244 127.106 23.1828C126.714 23.6411 126.209 23.8703 125.589 23.8703C125.195 23.8703 124.867 23.7717 124.606 23.5743C124.463 23.4651 124.324 23.3057 124.187 23.0962V25.6826H122.903V18.766H124.146V19.4991C124.286 19.2836 124.434 19.1136 124.592 18.9891C124.881 18.7675 125.224 18.6567 125.621 18.6567Z" fill="#424242"/>
<path id="Vector_28" d="M130.867 22.8139C131.246 22.8139 131.538 22.6789 131.741 22.4087C131.944 22.1385 132.046 21.7545 132.046 21.2567C132.046 20.7589 131.944 20.3764 131.741 20.1093C131.538 19.8391 131.246 19.704 130.867 19.704C130.487 19.704 130.194 19.8391 129.988 20.1093C129.785 20.3764 129.683 20.7589 129.683 21.2567C129.683 21.7545 129.785 22.1385 129.988 22.4087C130.194 22.6789 130.487 22.8139 130.867 22.8139ZM133.407 21.2567C133.407 21.9852 133.198 22.609 132.779 23.1281C132.36 23.6442 131.724 23.9022 130.871 23.9022C130.018 23.9022 129.382 23.6442 128.963 23.1281C128.544 22.609 128.335 21.9852 128.335 21.2567C128.335 20.5403 128.544 19.9195 128.963 19.3944C129.382 18.8692 130.018 18.6066 130.871 18.6066C131.724 18.6066 132.36 18.8692 132.779 19.3944C133.198 19.9195 133.407 20.5403 133.407 21.2567Z" fill="#424242"/>
</g>
<defs>
<clipPath id="clip0_129_4579">
<rect width="134" height="26" fill="white"/>
</clipPath>
</defs>
</svg>
